<svg id="Layer_1" data-name="Layer 1" xmlns="http://www.w3.org/2000/svg" viewBox="0 0 1080 1080"><defs><style>.cls-1{fill:#004284;}.cls-2{fill:#6399d4;}.cls-3{fill:#00579e;}.cls-4{fill:#3949ab;}.cls-5{fill:#fff;}</style></defs><title>Lang</title><path class="cls-1" d="M1006.76,811.43A58.84,58.84,0,0,1,986,831.65L569.56,1072.07a59.08,59.08,0,0,1-59.12,0L94,831.65a58.72,58.72,0,0,1-19.63-18.43L249.27,712,373.59,640.1l171.54-99.23L708.48,636.6l123.89,72.63Z"/><path class="cls-2" d="M1009,272.53l-175,101.21L709.72,445.66,545.13,540.87,373.59,640.1,249.27,712,74.37,813.22a58.92,58.92,0,0,1-9.93-32.79V299.57A59.15,59.15,0,0,1,94,248.35L510.44,7.93a59.08,59.08,0,0,1,59.12,0L986,248.35a59.12,59.12,0,0,1,22.69,23.59C1008.81,272.13,1008.92,272.34,1009,272.53Z"/><path class="cls-3" d="M1015.56,299.57V780.43a58.88,58.88,0,0,1-8.8,31L832.37,709.23,708.48,636.6,545.13,540.87l164.59-95.21,124.33-71.92,175-101.21A59.27,59.27,0,0,1,1015.56,299.57Z"/><path class="cls-4" d="M1009,272.53l-175,101.21L709.72,445.66,545.13,540.87l-.16-.09,164.59-95.42,124.25-72.05,174.88-101.37C1008.81,272.13,1008.92,272.34,1009,272.53Z"/><path class="cls-5" d="M540,734.18A194.14,194.14,0,0,1,345.82,540c0-107.23,86.95-194.18,194.18-194.18a194.05,194.05,0,0,1,169.56,99.54.63.63,0,0,1,.16.3l124.33-71.92a3.62,3.62,0,0,0-.24-.43C775.75,271.16,665.92,202.25,540,202.25c-186.53,0-337.75,151.22-337.75,337.75a336.29,336.29,0,0,0,47,172c58.84,99.21,167,165.72,290.73,165.72,124.86,0,233.91-67.76,292.37-168.52L708.48,636.6A194.11,194.11,0,0,1,540,734.18Z"/><path class="cls-5" d="M818,557.81V594H786.36V557.81H750.17V526.14h36.19V490H818v36.19h36.19v31.67Z"/><path class="cls-5" d="M941,557.81V594H909.36V557.81H873.17V526.14h36.19V490H941v36.19h36.19v31.67Z"/></svg>