<svg id="Layer_1" data-name="Layer 1" xmlns="http://www.w3.org/2000/svg" viewBox="0 0 1080 1080"><defs><style>.cls-1{fill:#006bc0;}.cls-2{fill:#0096dc;}.cls-3{fill:#fff;}</style></defs><title>Lang</title><path class="cls-1" d="M64.85,0l88.21,971.05,386.2,109L927.68,970.31,1015.15.38Zm791.3,918L543.7,1003.67l-3-917.3H929.91Z"/><polygon class="cls-2" points="929.9 85.99 856.15 917.68 540.74 1003.29 540.74 85.99 929.9 85.99"/><polygon class="cls-3" points="815.99 445.24 590.72 445.24 826.12 325.44 836.29 205.01 243.71 205.01 254.08 327.79 491.95 327.79 263.72 441.91 274.34 567.7 274.34 567.7 681.47 567.7 668.13 717.51 540 752.21 406.54 714.84 403.2 621.41 278.87 621.41 294.43 805.59 540 874.99 785.57 805.59 816 445.22 815.99 445.24"/></svg>