<svg id="Layer_1" data-name="Layer 1" xmlns="http://www.w3.org/2000/svg" viewBox="0 0 1080 1080"><defs><style>.cls-1{fill:#fff;}</style></defs><title>Social Media</title><path id="Icon_awesome-github" data-name="Icon awesome-github" class="cls-1" d="M361.24,847.79c0,4.37-5,7.83-11.33,7.83-7.19.66-12.2-2.81-12.2-7.83,0-4.36,5-7.83,11.33-7.83C355.57,839.31,361.24,842.78,361.24,847.79ZM293.53,838c-1.52,4.36,2.82,9.29,9.29,10.68a10.22,10.22,0,0,0,13.5-4.37C317.62,840,313.5,835,307,833A11.18,11.18,0,0,0,293.53,838Zm96.22-3.72c-6.19,1.52-10.68,5.67-10,10.68.65,4.37,6.2,7.19,12.85,5.67s10.68-5.67,10-10S396.07,833.64,389.75,834.29ZM533,.12C244.75-5.95,6.18,222.79.12,511q-.22,10.13,0,20.26a545.78,545.78,0,0,0,369,520.7c27.87,5,37.65-12.2,37.65-26.35,0-13.5-.65-88-.65-133.66,0,0-152.39,32.67-184.37-65,0,0-24.77-63.35-60.53-79.67,0,0-49.85-34,3.5-33.53a114.9,114.9,0,0,1,84,56.32,115.08,115.08,0,0,0,155.77,47.14c1-.53,2-1.07,2.93-1.63a121,121,0,0,1,34.83-73.37c-121.67-13.5-244.59-31.12-244.59-240.57A165,165,0,0,1,249,373.44a205.65,205.65,0,0,1,5.66-147.8c45.51-14.15,150.22,58.82,150.22,58.82a514.31,514.31,0,0,1,273.42,0S783,211.3,828.53,225.64a205.6,205.6,0,0,1,5.67,147.8,169.24,169.24,0,0,1,56.16,128.21c0,210.07-128.21,226.85-249.92,240.57a128.73,128.73,0,0,1,37.16,101c0,73.38-.65,164.09-.65,182,0,14.15,10,31.36,37.64,26.35a540.76,540.76,0,0,0,365.34-520.14C1079.84,229.32,834.94.12,533,.12ZM211.67,750.92c-2.82,2.16-2.17,7.18,1.52,11.33,3.49,3.46,8.48,5,11.33,2.16,2.81-2.16,2.16-7.18-1.52-11.33C219.5,749.62,214.52,748.1,211.67,750.92Zm-23.5-17.65c-1.52,2.82.65,6.19,5,8.48a6.47,6.47,0,0,0,9.07-1.21,3.46,3.46,0,0,0,.22-.31c1.52-2.81-.65-6.19-5-8.48-4.28-1.3-7.77-.65-9.29,1.55Zm70.53,77.4c-3.5,2.82-2.17,9.29,2.81,13.5,5,5,11.34,5.66,14.15,2.17,2.82-2.82,1.52-9.29-2.81-13.5-4.8-4.89-11.3-5.54-14.15-2.05Zm-24.77-32c-3.5,2.16-3.5,7.83,0,12.85s9.29,7.18,12.2,5a10,10,0,0,0,0-13.5c-3.1-4.89-8.76-7.06-12.23-4.24Z"/></svg>