<svg id="Layer_1" data-name="Layer 1" xmlns="http://www.w3.org/2000/svg" viewBox="0 0 1080 1080"><defs><style>.cls-1{fill:#e64c18;}.cls-2{fill:#f36518;}.cls-3{fill:#fff;}</style></defs><title>Lang</title><path class="cls-1" d="M64.85,0l88.21,971.05,386.2,109L927.68,970.31,1015.15.38Zm791.3,918L543.7,1003.67l-3-917.3H929.91Z"/><polygon class="cls-2" points="929.9 85.99 856.15 917.68 540.74 1003.29 540.74 85.99 929.9 85.99"/><polygon class="cls-3" points="244 205.34 274.6 567.68 681.32 567.68 668.01 717.35 540 752.02 406.68 714.67 403.33 621.35 279.14 621.35 294.68 805.33 540 874.66 785.32 805.33 815.72 445.34 387.4 445.34 376.77 328.01 376.77 328.01 825.84 325.66 836 205.34 244 205.34"/></svg>