<svg id="Layer_1" data-name="Layer 1" xmlns="http://www.w3.org/2000/svg" viewBox="0 0 1080 1080"><defs><style>.cls-1{fill:#ec2025;}.cls-2{fill:#0d8ac7;}</style></defs><title>Lang</title><path class="cls-1" d="M534.65,200.12C484.75,235.21,428.19,275,397.89,340.81c-52.64,114.82,107.7,240.07,114.56,245.35a8.85,8.85,0,0,0,13.25-11.1c-.58-1.12-58.13-112.91-56-193.12.75-27.93,39.85-59.62,81.23-93.17,37.91-30.73,80.88-65.56,106-106.3C712.14,92.79,650.8,4.6,650.18,3.72a8.85,8.85,0,0,0-15.87,7c.12.59,12.05,58.9-21.14,119C599.49,154.51,569.45,175.64,534.65,200.12Z"/><path class="cls-1" d="M744.9,239.66a8.85,8.85,0,0,0-8.47-15.34c-8.48,3.22-207.59,80-207.59,172.71,0,63.93,27.3,97.7,47.24,122.36,7.82,9.68,14.58,18,16.8,25.16,6.27,20.56-8.57,57.7-14.82,70.28a8.86,8.86,0,0,0,13,11.21c3.42-2.38,83.67-59.12,69.28-127.48-5.36-26-18.13-45-29.4-61.72-17.45-25.95-30.06-44.7-10.93-79.33C642.4,317.12,743.87,240.43,744.9,239.66Z"/><path class="cls-2" d="M226.59,629.09c-3.42,10.22-1.8,20.36,4.65,29.33,21.59,30,98.05,46.47,215.3,46.47h0c15.88,0,32.66-.31,49.84-.93,187.47-6.71,257-65.12,259.87-67.6a8.85,8.85,0,0,0-8.12-15.23c-66,18-189.31,24.43-274.83,24.43-95.68,0-144.42-6.89-156.35-12,6.13-8.41,43.88-23.42,90.67-32.62a8.85,8.85,0,0,0-1.71-17.54C378.51,583.42,241,585.62,226.59,629.09Z"/><path class="cls-2" d="M853.9,568.94c-38.66,0-75.33,19.38-76.88,20.2a8.86,8.86,0,0,0,4.17,16.66c.83,0,82.49.67,89.88,47.33,6.55,40.25-77.26,105.46-110.11,127.2a8.85,8.85,0,0,0,4.88,16.23,9,9,0,0,0,1.85-.19c7.79-1.67,190.7-42,171.36-148.47C927.25,582.64,886.23,568.94,853.9,568.94Z"/><path class="cls-2" d="M728.47,767.3a8.87,8.87,0,0,0-3.62-8.88L681,727.7a8.92,8.92,0,0,0-7.35-1.3c-.46.12-46.32,12.17-112.9,19.57a784.68,784.68,0,0,1-85.61,4.53c-66.57,0-110.09-7.83-116.43-13.56-.84-1.61-.57-2.35-.42-2.75,1.15-3.21,7.32-7,11.3-8.52a8.85,8.85,0,0,0-5.15-16.91c-44,10.62-65.5,25.47-63.94,44.13C303.27,786,379.91,803,444.7,807.45c9.32.63,19.39,1,29.94,1h0c107.73,0,245.85-33.81,247.23-34.15A8.83,8.83,0,0,0,728.47,767.3Z"/><path class="cls-2" d="M397.83,838.31A8.85,8.85,0,0,0,392.76,822c-5.89.16-57.69,2.5-61.31,35.47-1.1,9.86,1.72,18.86,8.39,26.76,18.6,22,68.8,35.14,153.44,40.05,10,.6,20.18.9,30.24.9,107.61,0,180.08-33.69,183.11-35.13a8.86,8.86,0,0,0,.84-15.56L652,840.7a8.87,8.87,0,0,0-6.42-1.11c-.35.07-35.54,7.37-88.65,14.58a286.77,286.77,0,0,1-37.39,2.06c-53.06,0-112.06-8.67-123.38-14.35A3.55,3.55,0,0,1,397.83,838.31Z"/><path class="cls-2" d="M473.36,1027c246.49-.21,378.79-44,404.27-71.63,9-9.75,10-19,9.23-25-1.89-14.85-15.42-23.94-17-24.93a8.94,8.94,0,0,0-11.55,1.57,8.75,8.75,0,0,0-.06,11.52c1.55,2,2.45,5.35-2.09,9.9-10.19,9.52-113,38.4-284,47.08-23.44,1.21-48,1.83-73.06,1.84-153.19,0-265.3-21-280-33.21,5.67-8.15,45.33-21.17,87.5-28.54a8.86,8.86,0,0,0-2.71-17.5c-1.19.17-5.22.41-9.9.69C224.4,903,144,912.43,139.79,948.28c-1.27,10.93,2,20.85,9.65,29.48,18.8,21.11,72.81,49.19,323.91,49.19Z"/><path class="cls-2" d="M926.05,963.1a8.85,8.85,0,0,0-10.21,2c-.36.39-37.42,39.15-148.84,61.9-42.66,8.55-122.73,12.88-238,12.88-115.48,0-225.37-4.54-226.46-4.59a8.85,8.85,0,0,0-2.42,17.46c1.14.27,116.3,27.25,273.75,27.25,75.52,0,149-6.13,218.42-18.24,129.43-22.69,138.5-86.87,138.82-89.59A8.86,8.86,0,0,0,926.05,963.1Z"/></svg>