<svg id="Layer_1" data-name="Layer 1" xmlns="http://www.w3.org/2000/svg" viewBox="0 0 1080 1080"><defs><style>.cls-1{fill:#e2c034;}.cls-2{fill:#ebebeb;fill-opacity:0;opacity:0.99;isolation:isolate;}.cls-3{fill:#fdd83c;}.cls-4{fill:#fff;}</style></defs><title>Lang</title><g id="g5193"><path id="path5113" class="cls-1" d="M64.86,0l31.5,346.77,37.52,413L153.07,971l386.19,109L927.67,970.3,943.57,794l43.77-485.36L1015.14.37Zm160.7,656.07.31.09.22.06,182.34,49.72.37.1,1.09-488.5,0-6.65v-2.6h94.51V845L225.71,769.79,225.34,656ZM856.14,918l-312.43,85.61v-1.18l-.17-50.56L540.77,97.14l0-10.78H929.9L917.2,229.52,861.06,862.58Z"/><polygon class="cls-2" points="409.89 217.54 408.8 706.04 408.43 705.94 409.17 459.2 409.89 217.54"/><path id="path5117" class="cls-3" d="M540.74,86v917.3l3-.81,312.43-84.8L861,862.61l56.15-633.12,12.7-143.13,0-.38ZM874.3,321.7l-201.62.74v166l189-21.12L836.13,778.31,580,845l-1.86-112.67,185.32-49.29,2.59-91.91-183.83,31.5-4.08-412.88,304.29-1.48Z"/></g><path class="cls-4" d="M502.57,210.89V526.66c0,250.91-.74,315.77-3.34,315.77-1.85-.37-13.71-3.34-25.94-6.67-12.23-3.71-72.64-20-134.17-36.69l-111.56-30v-56c0-54.85,0-56,5.56-54.11,3,1.11,43.74,12.23,90.44,25.2l84.87,23.35v-1.58l.37.1,1.09-488.5,0-6.65Z"/><polygon class="cls-4" points="672.68 322.44 672.68 488.48 861.7 467.36 836.13 778.31 580.03 845.02 578.17 732.35 763.49 683.06 766.08 591.15 582.25 622.65 578.17 209.77 882.46 208.29 874.3 321.7 672.68 322.44"/></svg>