<svg id="Layer_1" data-name="Layer 1" xmlns="http://www.w3.org/2000/svg" viewBox="0 0 1080 1080"><defs><style>.cls-1{fill:#fff;}</style></defs><title>Social Media</title><path id="Icon_awesome-linkedin" data-name="Icon awesome-linkedin" class="cls-1" d="M1002.86,0H76.9A77.49,77.49,0,0,0,0,77.86v924.28A77.49,77.49,0,0,0,76.9,1080h926a77.68,77.68,0,0,0,77.14-77.86V77.86A77.68,77.68,0,0,0,1002.86,0ZM326.4,925.71h-160V410.3H326.64V925.71Zm-80-585.8a92.81,92.81,0,1,1,92.81-92.81h0A92.85,92.85,0,0,1,246.38,339.91Zm680.05,585.8H766.35V675c0-59.8-1.2-136.7-83.17-136.7-83.42,0-96.17,65.14-96.17,132.34V925.71H426.93V410.3H580.49v70.39h2.16A168.59,168.59,0,0,1,734.3,397.51c162,0,192,106.8,192,245.66Z"/></svg>