<svg id="Layer_1" data-name="Layer 1" xmlns="http://www.w3.org/2000/svg" viewBox="0 0 1080 1080"><defs><style>.cls-1{fill:#fff;}</style></defs><title>Social Media</title><path id="Icon_awesome-twitter-square" data-name="Icon awesome-twitter-square" class="cls-1" d="M964.29,0H115.71A115.74,115.74,0,0,0,0,115.71V964.29A115.74,115.74,0,0,0,115.71,1080H964.29A115.74,115.74,0,0,0,1080,964.29V115.71A115.74,115.74,0,0,0,964.29,0ZM846.41,382.83c.48,6.86.48,13.72.48,20.58,1.69,246.74-197,448.13-443.7,449.82-2,0-4.09,0-6.13,0a447.69,447.69,0,0,1-242.77-71,331.87,331.87,0,0,0,38.09,1.92,317,317,0,0,0,196.21-67.51A158.33,158.33,0,0,1,240.82,607a170.37,170.37,0,0,0,71.35-2.88A158.13,158.13,0,0,1,185.62,448.83v-1.92A158,158,0,0,0,257.14,467a158.52,158.52,0,0,1-49.09-211.54A448.94,448.94,0,0,0,534,420.79,158.43,158.43,0,0,1,803.73,276.38,309.85,309.85,0,0,0,904,238.29a157.71,157.71,0,0,1-69.43,87,314.55,314.55,0,0,0,91.13-24.44A332.62,332.62,0,0,1,846.41,382.83Z"/></svg>